<svg width="67" height="54" viewBox="0 0 67 54" fill="none" xmlns="http://www.w3.org/2000/svg">
<path d="M48.2993 44.8004L34.1995 52.3897L20.1992 44.8628L20.166 29.3316L34.1947 21.6396C38.4128 24.1204 42.9437 26.1772 47.1523 28.6624C47.5884 28.9211 48.2424 29.1398 48.3419 29.6395L48.2945 44.7959L48.2993 44.8004ZM38.318 26.1906L34.0241 24.1248C33.0336 24.8833 23.4647 29.5101 23.6163 30.0633C23.6732 30.273 27.1756 32.1023 27.678 32.0265L38.3133 26.1906H38.318ZM40.2707 27.6897L29.8581 33.4185L34.3274 35.7297L44.7779 30.0633C44.8537 29.8403 44.6878 29.7733 44.5504 29.6529C44.048 29.2245 40.8631 27.596 40.2707 27.6897ZM33.1947 49.2442V37.8222L32.6023 37.3315L22.2798 31.848V43.4797L33.1947 49.2442ZM46.1144 31.848L35.1995 37.8222V49.2442L36.0289 49.0791L46.1144 43.4797V31.848Z" fill="#0071BC"/>
<path d="M28.5738 36.8269L26.2041 35.4884L26.3273 33.4717L28.825 34.132L28.5738 36.8269Z" fill="#0071BC"/>
<path d="M33.7018 15.9149L18.8105 24.3386L33.7018 0L48.4746 23.4106L33.7018 15.9149Z" fill="#FF8200"/>
<path d="M13.2467 46.4822L26.7399 53.7949L0 53.4112L13.0477 32.3252L13.2467 46.4822Z" fill="#FF8200"/>
<path d="M54.4699 46.821L53.9912 33.0254L66.9393 53.3618L42.5312 53.9999L54.4699 46.821Z" fill="#FF8200"/>
</svg>
